<svg width="25" height="24" viewBox="0 0 25 24" fill="none" xmlns="http://www.w3.org/2000/svg">
<path d="M21.823 3.73685C21.8069 3.46162 21.6903 3.20188 21.4954 3.00694C21.3004 2.812 21.0407 2.69542 20.7655 2.67935C17.053 2.46091 13.7727 2.89872 11.0155 3.97966C8.37736 5.01372 6.34392 6.61685 5.13267 8.6156C3.48079 11.3447 3.47704 14.6578 5.09048 17.8209L3.45642 19.455C3.35177 19.5596 3.26876 19.6839 3.21213 19.8206C3.15549 19.9573 3.12634 20.1039 3.12634 20.2519C3.12634 20.3998 3.15549 20.5464 3.21213 20.6831C3.26876 20.8198 3.35177 20.9441 3.45642 21.0487C3.66776 21.2601 3.95441 21.3788 4.25329 21.3788C4.40129 21.3788 4.54783 21.3497 4.68456 21.293C4.82129 21.2364 4.94552 21.1534 5.05017 21.0487L6.68423 19.4147C8.25361 20.2153 9.86048 20.6193 11.4139 20.6193C12.9922 20.6243 14.5411 20.1927 15.8895 19.3725C17.8883 18.1612 19.4914 16.1268 20.5255 13.4897C21.6036 10.7306 22.0414 7.44935 21.823 3.73685ZM14.7205 17.445C12.837 18.5859 10.6274 18.6722 8.37173 17.7187L16.2974 9.7931C16.402 9.68845 16.485 9.56422 16.5416 9.42749C16.5983 9.29076 16.6274 9.14422 16.6274 8.99622C16.6274 8.84823 16.5983 8.70169 16.5416 8.56496C16.485 8.42823 16.402 8.304 16.2974 8.19935C16.1927 8.0947 16.0685 8.01169 15.9317 7.95506C15.795 7.89842 15.6485 7.86927 15.5005 7.86927C15.3525 7.86927 15.2059 7.89842 15.0692 7.95506C14.9325 8.01169 14.8083 8.0947 14.7036 8.19935L6.78361 16.1306C5.83298 13.8806 5.91923 11.6653 7.06486 9.78185C9.02517 6.54466 13.678 4.7456 19.6274 4.88341C19.7567 10.8309 17.9577 15.4847 14.7205 17.445Z" fill="black"/>
</svg>
