<svg width="20" height="22" viewBox="0 0 20 22" fill="none" xmlns="http://www.w3.org/2000/svg">
<path d="M17.5023 7.125H14.8773V5.25C14.8773 3.95707 14.3637 2.71709 13.4495 1.80285C12.5352 0.888615 11.2952 0.375 10.0023 0.375C8.70939 0.375 7.46941 0.888615 6.55517 1.80285C5.64093 2.71709 5.12732 3.95707 5.12732 5.25V7.125H2.50232C2.00504 7.125 1.52812 7.32254 1.17649 7.67417C0.824863 8.02581 0.627319 8.50272 0.627319 9V19.5C0.627319 19.9973 0.824863 20.4742 1.17649 20.8258C1.52812 21.1775 2.00504 21.375 2.50232 21.375H17.5023C17.9996 21.375 18.4765 21.1775 18.8281 20.8258C19.1798 20.4742 19.3773 19.9973 19.3773 19.5V9C19.3773 8.50272 19.1798 8.02581 18.8281 7.67417C18.4765 7.32254 17.9996 7.125 17.5023 7.125ZM7.37732 5.25C7.37732 4.55381 7.65388 3.88613 8.14616 3.39384C8.63845 2.90156 9.30613 2.625 10.0023 2.625C10.6985 2.625 11.3662 2.90156 11.8585 3.39384C12.3508 3.88613 12.6273 4.55381 12.6273 5.25V7.125H7.37732V5.25ZM17.1273 19.125H2.87732V9.375H17.1273V19.125ZM11.5023 14.25C11.5023 14.5467 11.4143 14.8367 11.2495 15.0834C11.0847 15.33 10.8504 15.5223 10.5763 15.6358C10.3023 15.7494 10.0007 15.7791 9.70968 15.7212C9.41871 15.6633 9.15144 15.5204 8.94166 15.3107C8.73188 15.1009 8.58902 14.8336 8.53114 14.5426C8.47326 14.2517 8.50297 13.9501 8.6165 13.676C8.73003 13.4019 8.92229 13.1676 9.16896 13.0028C9.41564 12.838 9.70565 12.75 10.0023 12.75C10.4001 12.75 10.7817 12.908 11.063 13.1893C11.3443 13.4706 11.5023 13.8522 11.5023 14.25Z" fill="black"/>
</svg>
