<svg width="20" height="22" viewBox="0 0 20 22" fill="none" xmlns="http://www.w3.org/2000/svg">
<path d="M19.1233 14.5559C18.3095 13.1562 17.8773 11.1472 17.8773 8.75C17.8773 6.66142 17.0477 4.65838 15.5708 3.18153C14.094 1.70469 12.0909 0.875 10.0023 0.875C7.91377 0.875 5.91073 1.70469 4.43388 3.18153C2.95703 4.65838 2.12735 6.66142 2.12735 8.75C2.12735 11.1481 1.69703 13.1562 0.883283 14.5559C0.717234 14.8414 0.629215 15.1656 0.628063 15.4958C0.626911 15.8261 0.712667 16.1509 0.87672 16.4375C1.03974 16.7243 1.27634 16.9624 1.56211 17.1272C1.84789 17.292 2.17247 17.3775 2.50235 17.375H5.89422C5.98725 18.4003 6.46029 19.3537 7.22043 20.048C7.98057 20.7423 8.97285 21.1273 10.0023 21.1273C11.0318 21.1273 12.0241 20.7423 12.7843 20.048C13.5444 19.3537 14.0174 18.4003 14.1105 17.375H17.5023C17.8317 17.377 18.1557 17.2913 18.441 17.1265C18.7262 16.9617 18.9624 16.7239 19.1252 16.4375C19.2899 16.1513 19.3765 15.8267 19.3762 15.4965C19.3758 15.1662 19.2886 14.8418 19.1233 14.5559ZM10.0023 18.875C9.5701 18.8751 9.1511 18.7258 8.81626 18.4525C8.48141 18.1791 8.25129 17.7985 8.16485 17.375H11.8398C11.7534 17.7985 11.5233 18.1791 11.1884 18.4525C10.8536 18.7258 10.4346 18.8751 10.0023 18.875ZM3.12672 15.125C3.95641 13.4375 4.37735 11.2944 4.37735 8.75C4.37735 7.25816 4.96998 5.82742 6.02487 4.77252C7.07976 3.71763 8.5105 3.125 10.0023 3.125C11.4942 3.125 12.9249 3.71763 13.9798 4.77252C15.0347 5.82742 15.6273 7.25816 15.6273 8.75C15.6273 11.2934 16.0473 13.4375 16.877 15.125H3.12672Z" fill="black"/>
</svg>
