<svg width="22" height="22" viewBox="0 0 22 22" fill="none" xmlns="http://www.w3.org/2000/svg">
<path d="M20.4954 7.47499C21.3019 9.64123 21.3429 12.0182 20.6116 14.211C19.8803 16.4038 18.4207 18.2803 16.4754 19.5288C14.5301 20.7772 12.2161 21.3225 9.918 21.074C7.61989 20.8254 5.47602 19.798 3.8426 18.1625C2.00777 16.3337 0.943717 13.8712 0.869405 11.2817C0.795093 8.69217 1.71618 6.17268 3.44311 4.24168C5.17005 2.31068 7.57145 1.11507 10.1532 0.900895C12.7349 0.686719 15.3005 1.47027 17.322 3.0903L19.2064 1.20499C19.311 1.10034 19.4352 1.01733 19.572 0.960697C19.7087 0.904062 19.8552 0.874913 20.0032 0.874913C20.1512 0.874913 20.2978 0.904062 20.4345 0.960697C20.5712 1.01733 20.6955 1.10034 20.8001 1.20499C20.9047 1.30964 20.9878 1.43387 21.0444 1.5706C21.101 1.70733 21.1302 1.85387 21.1302 2.00186C21.1302 2.14986 21.101 2.2964 21.0444 2.43313C20.9878 2.56986 20.9047 2.69409 20.8001 2.79874L11.8001 11.7987C11.6955 11.9034 11.5712 11.9864 11.4345 12.043C11.2978 12.0997 11.1512 12.1288 11.0032 12.1288C10.8552 12.1288 10.7087 12.0997 10.572 12.043C10.4352 11.9864 10.311 11.9034 10.2064 11.7987C10.1017 11.6941 10.0187 11.5699 9.96206 11.4331C9.90543 11.2964 9.87628 11.1499 9.87628 11.0019C9.87628 10.8539 9.90543 10.7073 9.96206 10.5706C10.0187 10.4339 10.1017 10.3096 10.2064 10.205L12.4564 7.95499C11.8222 7.65201 11.1093 7.55457 10.4171 7.67624C9.72491 7.79792 9.08797 8.13264 8.59516 8.63372C8.10235 9.13479 7.77826 9.77721 7.66812 10.4713C7.55797 11.1654 7.66726 11.8766 7.98074 12.5057C8.29422 13.1347 8.79625 13.6501 9.41677 13.9801C10.0373 14.3101 10.7453 14.4381 11.4421 14.3464C12.1389 14.2546 12.7897 13.9476 13.3036 13.4682C13.8175 12.9888 14.1689 12.3609 14.3089 11.6722C14.3678 11.3797 14.5405 11.1225 14.789 10.9573C15.0375 10.7922 15.3415 10.7325 15.634 10.7914C15.9265 10.8503 16.1837 11.023 16.3488 11.2716C16.514 11.5201 16.5737 11.824 16.5148 12.1166C16.2752 13.297 15.6629 14.3694 14.7681 15.1758C13.8734 15.9823 12.7434 16.4802 11.5444 16.5963C10.3455 16.7124 9.14097 16.4406 8.10809 15.8208C7.07521 15.2011 6.26856 14.2661 5.80685 13.1536C5.34515 12.041 5.25277 10.8096 5.54332 9.64066C5.83388 8.47169 6.49201 7.42685 7.42086 6.65993C8.34971 5.89301 9.50022 5.44451 10.7031 5.38045C11.9059 5.31638 13.0975 5.64013 14.1026 6.30405L15.7179 4.69436C14.2006 3.56116 12.3257 3.01271 10.4368 3.14952C8.54798 3.28633 6.77168 4.09923 5.43348 5.43926C4.09527 6.77928 3.28477 8.55668 3.15053 10.4457C3.01628 12.3347 3.56728 14.2089 4.70253 15.7247C5.83779 17.2405 7.48127 18.2964 9.33179 18.699C11.1823 19.1015 13.1159 18.8237 14.7783 17.9165C16.4406 17.0093 17.7204 15.5334 18.383 13.7593C19.0456 11.9852 19.0467 10.0317 18.386 8.25686C18.3334 8.1181 18.3088 7.97031 18.3136 7.822C18.3184 7.67368 18.3524 7.52778 18.4138 7.39268C18.4752 7.25759 18.5628 7.13598 18.6714 7.03485C18.78 6.93373 18.9075 6.85509 19.0466 6.80346C19.1857 6.75183 19.3337 6.72823 19.482 6.73403C19.6302 6.73982 19.7759 6.7749 19.9106 6.83723C20.0452 6.89956 20.1662 6.98792 20.2666 7.09721C20.367 7.20651 20.4447 7.33458 20.4954 7.47405V7.47499Z" fill="black"/>
</svg>
